<?xml version="1.0" encoding="utf-8"?>
<!-- Generator: Adobe Illustrator 17.0.0, SVG Export Plug-In . SVG Version: 6.00 Build 0)  -->
<!DOCTYPE svg PUBLIC "-//W3C//DTD SVG 1.1//EN" "http://www.w3.org/Graphics/SVG/1.1/DTD/svg11.dtd">
<svg version="1.1" id="Livello_1" xmlns="http://www.w3.org/2000/svg" xmlns:xlink="http://www.w3.org/1999/xlink" x="0px" y="0px"
	 width="496.952px" height="229.679px" viewBox="0 0 496.952 229.679" enable-background="new 0 0 496.952 229.679"
	 xml:space="preserve">
<g>
	<g>
		<path fill="#30B4BC" d="M93.421,2.459c7.39,1.972,7.237,9.168,12.92,12.905c3.781,2.486,9.16,4.56,13.377,1.969
			c-0.612-0.249-1.224-0.498-1.836-0.747c2.513,10.265,9.108,14.999,17.716,20.328c5.58,3.455,9.101,8.006,12.52,13.508
			c2.692,4.331,2.092,10.198,5.418,14.049c2.366,2.739,5.558,4.72,6.74,8.316c0.51,1.55,0.789,3.112,1.485,4.597
			c1.53,3.265,6.737,4.146,9.743,5.075c6.161,1.904,6.871,9.161,12.293,11.88c3.111,1.56,6.459,0.139,9.413,2.657
			c2.384,2.032,2.944,6.058,4.798,8.555c0.512,0.689,1.292,0.8,1.963,0.253c3.835-3.126,5.038-7.439,6.433-12.01
			c1.131-3.708,2.706-7.278,4.276-10.814c1.549-3.49,2.346-7.187,3.997-10.626c1.393-2.903,3.794-5.289,6.05-7.538
			c1.977-1.972,4.501-2.383,7.016-1.394c0.76,0.299,1.833,0.827,2.678,0.748c2.007-0.186,3.675-0.754,5.484-1.629
			c4.643-2.247,7.576-0.86,10.828,2.639c2.445,2.631,5.508,3.203,9.02,2.612c2.527-0.425,5.18-1.255,7.736-0.671
			c2.948,0.674,4.651,4.167,6.973,5.85c3.054,2.214,6.502,2.287,10.138,2.679c6.733,0.726,9.946,6.529,15.118,10.256
			c5.277,3.802,8.862,8.084,13.247,12.736c2.792,2.962,6.909,2.102,10.515,1.711c3.13-0.34,3.139,1.585,3.728,3.873
			c0.589,2.287,1.77,4.376,3.178,6.247c1.642,2.183,4.061,2.336,6.126,0.682c2.497-1.999,3.881-3.429,7.315-2.935
			c3.05,0.439,6.022,1.911,8.788,3.204c6.526,3.051,3.907,9.878,4.548,15.573c0.444,3.945,2.891,6.575,6.295,8.337
			c5.858,3.032,11.298-1.128,17.24-1.176c9.374-0.076,20.771,8.69,27.174,14.939c3.565,3.479,6.265,7.821,6.651,12.861
			c0.251,3.271-1.358,7.034,0.265,10.135c1.59,3.036,4.068,5.251,6.764,7.307c1.903,1.451,4.345,2.225,6.506,3.205
			c2.238,1.015,3.932,3.011,5.814,4.535c1.115,0.903,3.292,0.426,3.226,2.783c-0.03,1.092,0.728,2.412,1.455,3.179
			c2.121,2.24,5.333,3.674,4.622,7.572c-0.293,1.609-0.723,3.279-0.292,4.915c1.059,4.019,4.978,11.254,10.151,10.127
			c2.408-0.525,4.461-1.941,7.056-1.588c1.801,0.245,3.459,1.339,5.251,1.702c1.672,0.339,7.939-2.38,8.613-0.904
			c0.984,2.154,3.365,3.835,5.76,4.037c3.486,0.295,8.918-3.315,11.42,0.322c1.412,2.054,1.192,4.873,2.658,6.977
			c1.361,1.953,3.811,2.11,5.964,1.91c1.591-0.148,1.606-2.65,0-2.5c-5.293,0.493-4.68-4.134-6.463-7.648
			c-1.509-2.974-5.34-3.021-8.161-2.557c-3.243,0.534-6.975,2.505-9.019-1.802c-0.616-1.298-1.217-2.209-2.691-2.614
			c-0.991-0.273-2.405,0.058-3.152,0.785c-3.002,2.923-6.313,0.885-9.514-0.119c-1.757-0.551-3.626-0.02-5.274,0.583
			c-4.045,1.482-6.038,0.159-8.23-3.202c-2.048-3.138-2.08-5.483-1.413-9.141c0.286-1.571,0.039-3.228-1.09-4.426
			c-2.463-2.615-4.077-3.348-5.157-7.275c-0.395-1.436-1.121-2.362-2.577-2.762c-2.561-0.704-4.037-2.5-6.041-4.123
			c-2.318-1.877-5.654-2.466-8.159-4.131c-3.068-2.038-6.203-5.215-6.211-9.071c-0.005-2.519,0.517-4.943,0.322-7.488
			c-0.364-4.744-3.283-8.902-6.327-12.348c-6.436-7.286-18.423-15.62-28.28-16.526c-7.312-0.672-14.233,5.112-20.696-0.706
			c-4.109-3.699-1.237-11.345-2.398-16.116c-0.784-3.221-3.977-5.227-6.822-6.396c-4.168-1.713-9.09-4.318-13.567-2.321
			c-0.988,0.441-1.868,1.277-2.694,1.963c-3.198,2.659-5.02-0.622-6.2-3.647c-0.768-1.97-0.595-4.527-2.314-5.992
			c-2.041-1.739-5.974-0.493-8.267-0.308c-4.658,0.376-6.886-4.126-9.507-7.247c-2.788-3.321-6.686-5.713-10.168-8.222
			c-3.375-2.432-5.549-6.107-9.127-8.239c-3.166-1.886-7.612-1.436-11.125-2.033c-4.006-0.682-6.173-4.666-9.271-6.899
			c-1.787-1.288-4.16-1.406-6.253-1.085c-2.491,0.383-4.93,0.931-7.465,0.927c-2.424-0.003-3.79-1.935-5.274-3.483
			c-1.906-1.988-4.873-4.139-7.807-3.493c-1.719,0.378-3.159,1.074-4.719,1.873c-3.249,1.664-5.307,0.709-8.434-0.075
			c-6.796-1.704-13.022,8.887-15.009,13.775c-2.195,5.4-4.36,10.995-6.318,16.506c-1.717,4.831-2.494,10.038-6.679,13.448
			c0.654,0.084,1.309,0.169,1.963,0.253c-2.181-2.937-2.901-8.336-6.448-10.115c-2.462-1.234-4.827-1.363-7.529-1.739
			c-3.921-0.545-5.671-5.298-7.747-8.09c-3.015-4.056-7.968-4.473-12.279-6.377c-2.534-1.12-2.81-3.492-3.476-5.846
			c-0.599-2.117-1.825-3.779-3.305-5.365c-2.498-2.675-4.966-4.412-5.798-8.253c-0.51-2.353-0.983-4.518-1.923-6.746
			c-1.877-4.447-5.402-9.418-8.919-12.735c-3.697-3.487-8.492-5.72-12.691-8.516c-5.329-3.55-8.259-8.458-9.759-14.586
			c-0.19-0.775-1.16-1.163-1.836-0.747c-6.245,3.838-12.691-3.345-15.391-8.09c-2.152-3.783-4.749-5.907-8.98-7.036
			C92.526-0.368,91.865,2.044,93.421,2.459L93.421,2.459z"/>
	</g>
</g>
<g>
	<g>
		<path d="M36.379,31.92c0.037-1.237,0.58-2.35,0.978-3.501c0.264-0.764-0.944-1.089-1.205-0.332
			c-0.439,1.268-0.981,2.469-1.022,3.833C35.104,32.727,36.354,32.724,36.379,31.92L36.379,31.92z"/>
	</g>
</g>
<g>
	<g>
		<path fill="#30B4BC" d="M38.292,29.586c0.341-1.143,0.637-2.291,0.93-3.447c0.623-2.462,3.384-1.443,4.159,0.346
			c0.859,1.985,3.989,1.86,5.707,2.308c0.986,0.257,1.699-0.616,1.538-1.538c-0.353-2.015-0.731-3.543,1.796-4.188
			c0.825-0.21,1.891-0.424,2.411-1.182c0.766-1.117,1.233-2.16,1.593-3.458c0.978-3.534,5.199,0.291,6.933,0.365
			c1.168,0.05,1.719,0.038,2.652-0.731c2.772-2.286,4.926-3.729,8.659-4.181c1.91-0.232,3.447-1.063,4.345,0.97
			c0.751,1.698,1.656,3.212,2.89,4.594c1.953,2.188,5.273,2.871,8.034,3.147c1.617,0.162,3.321-0.103,4.937-0.197
			c1.146-0.066,2.239-0.035,3.371,0.194c4.511,0.911,0.109,3.398-0.208,4.006c-1.291,2.472-0.519,5.911,0.373,8.408
			c0.587,1.643,1.364,3.285,2.323,4.739c0.238,0.335,0.476,0.671,0.714,1.006c1.015,0.819,0.883,1.507-0.395,2.063
			c-0.482-0.673-0.848-1.449-1.222-2.185c-0.368-0.725-1.419-0.799-1.963-0.253c-1.866,1.871-2.385-0.186-4.206,0.168
			c-1.857,0.361-3.202,1.344-4.627,2.54c-3.555,2.982-8.31,1.307-9.377,6.617c-0.279,1.386,0.504,2.867,1.044,4.086
			c1.524,3.439-0.624,5.272-1.167,8.387c-0.819,4.696,2.485,10.17,5.48,13.458c4.396,4.827,10.609,7.699,14.505,12.977
			c3.473,4.705,5.221,10.59,7.955,15.72c5.617,10.54,15.175,13.238,26.339,13.975c2.341,0.155,6.535-0.442,6.344,2.749
			c-0.081,1.361,0.231,2.479,0.756,3.713c1.742,4.099,7.994,5.602,11.679,6.935c7.358,2.662,20.132,10.315,21.165,18.834
			c0.188,1.55-0.61,2.84-1.552,3.973c-1.282,1.541-3.176-1.292-3.674-1.937c-1.061-1.374-1.912-2.904-3.007-4.254
			c-2.697-3.324-7.428-4.379-11.464-5.039c-7.714-1.262-12.827,7.247-9.718,14.04c0.606,1.325,2.114,2.379,3.424,2.877
			c4.938,1.875,4.894,5.065,5.403,9.4c0.277,2.357,1.461,3.958-0.409,3.3c-1.449-0.51-2.807-0.561-4.291-0.2
			c-4.868,1.185-2.853,6.483-4.318,9.776c-0.871,1.957-3.236,3.372-4.478,5.16c-0.474,0.682-0.784,1.49-1.094,2.254
			c-2.447,6.024-8.69,1.521-5.377-3.733c0.929-1.473,1.772-2.538,1.348-4.321c-0.361-1.519,3.139-3.667,3.889-5.092
			c2.369-4.499-0.413-10.98-2.148-15.143c-1.643-3.941-4.094-7.411-7.908-9.414c-0.935-0.491-2.058-0.632-3.077-0.825
			c-4.509-0.853-4.093-3.41-4.462-6.385c-0.184-1.481-1.074-3.462-2.494-4.177c-1.235-0.622-1.996-0.742-3.351-0.371
			c-2.646,0.724-6.533-4.554-8.167-6.201c-4.607-4.642-9.073-7.594-15.51-8.976c-4.053-0.87-7.457-1.863-10.536-4.852
			c-2.102-2.04-3.77-4.534-5.569-6.833c-3.719-4.753-9.362-6.767-12.247-12.082c-1.15-2.117-2.77-3.791-4.466-5.469
			c-2.402-2.375-2.683-6.377-3.637-9.452c-1.334-4.299-3.742-8.154-7.37-10.876c-4.924-3.695-8.576-7.647-14.638-9.416
			c-4.243-1.238-7.311,1.455-10.227,4.087c-1.878,1.696-4.121,3.117-6.256,4.47c-0.529,0.335-4.713,2.704-4.059-0.317
			c0.27-1.247,1.031-2.212,1.031-3.555c0-1.351-0.798-2.148-1.901-2.656C8.498,66.931,5.293,67,3.974,63.304
			c-1.272-3.567,2.759-7.866-0.399-11.335c-2.365-2.598,1.859-4.941,3.176-6.722c1.043-1.409,0.594-3.367,0.087-4.855
			c-0.603-1.768-3.488-4.483-1.076-6.139c3.083-2.118,7.121,0.086,10.493-0.083c4.282-0.215,6.08-5.009,7.807-8.133
			c1.556-2.815,3.76-3.04,4.582,0.079c0.462,1.752,0.894,3.464,1.606,5.135c1.212,2.845,3.827,3.026,6.133,1.416
			c1.311-0.916,0.064-3.084-1.262-2.159c-3.435,2.398-3.867-5.427-4.811-7.4c-1.092-2.283-3.622-2.916-5.727-1.653
			c-2.95,1.769-3.604,6.084-5.715,8.582c-3.763,4.453-11.355-1.969-15.521,2.871c-1.945,2.259-0.995,4.318,0.329,6.693
			c3.183,5.713-4.868,6.402-3.526,11.616c0.465,1.807,1.91,2.439,2.155,4.562c0.238,2.057-0.853,3.991-0.901,6.019
			c-0.083,3.491,2.073,6.349,5.327,7.547c2.755,1.015,4.49,1.209,3.172,4.491c-0.388,0.966-0.413,2.477,0.297,3.303
			c2.422,2.819,5.859,0.836,8.428-0.792c4.086-2.59,8.453-8.481,13.563-7.675c4.029,0.635,7.305,3.501,10.262,6.068
			c2.63,2.284,5.471,4.231,7.51,7.105c3.117,4.394,3.147,10.057,5.708,14.708c1.213,2.204,3.69,4.052,5.137,6.184
			c1.128,1.661,1.581,3.693,3.311,4.931c2.563,1.834,5.23,3.154,7.458,5.453c2.025,2.089,3.669,4.564,5.486,6.833
			c4.155,5.19,8.819,6.675,15.124,8.028c6.856,1.471,12.134,6.713,16.633,11.827c1.377,1.566,2.386,2.743,4.419,3.304
			c0.496,0.137,1.119,0.084,1.61-0.054c2.672-0.755,3.474,2.613,3.795,4.635c0.92,5.801,5.379,5.016,9.626,7.246
			c4.509,2.367,12.891,19.179,6.182,22.279c-1.644,0.759-2.144,1.692-2.611,3.36c-0.355,1.268,1.009,1.058-0.096,3.191
			c-0.601,1.159-1.396,2.21-2,3.375c-1.859,3.587,0.967,6.863,4.069,8.366c3.214,1.557,5.413-0.941,6.616-3.605
			c1.13-2.502,2.253-4.173,4.236-6.08c1.268-1.22,2.584-3.176,2.641-4.999c0.105-3.349,0.615-6.849,4.786-5.526
			c0.813,0.258,1.637,0.644,2.508,0.404c2.845-0.783,0.975-6.823,0.815-8.437c-0.347-3.489-1.023-7.223-4.679-8.611
			c-5.254-1.995-5.911-5.822-3.308-10.337c2.426-4.207,7.48-2.532,11.125-1.413c4.815,1.478,6.166,5.121,9.206,8.639
			c1.824,2.11,4.073,2.421,6.211,0.726c6.497-5.149-1.364-13.865-5.296-17.382c-3.406-3.047-7.319-5.804-11.358-7.943
			c-3.266-1.73-6.972-2.57-10.326-4.123c-3.804-1.762-3.958-4.035-4.34-7.572c-0.471-4.366-8.994-3.454-11.761-3.653
			c-10.03-0.724-17.126-4.78-21.902-13.744c-3.237-6.075-5.188-12.66-10.011-17.766c-6.038-6.393-18.753-11.389-16.828-22.423
			c0.414-2.372,2.496-4.012,1.663-6.636c-0.493-1.553-3.014-6.697,0.184-7.102c1.105-0.14,2.021-0.12,3.087-0.464
			c3.048-0.984,4.778-5.453,8.422-3.779c1.693,0.778,3.008-0.417,4.13-1.542c-0.654-0.084-1.309-0.169-1.963-0.253
			c1.48,2.911,4.461,7.157,7.159,3c1.344-2.07-0.849-4.873-1.939-6.408c-2.06-2.9-4.759-8.892-1.288-11.642
			c3.159-2.503-1.327-6.641-3.862-6.874c-3.284-0.301-6.495,0.425-9.766-0.18c-4.632-0.856-6.142-4.658-7.812-8.492
			c-0.226-0.519-0.914-0.691-1.412-0.574c-5.372,1.259-9.36,1.049-13.645,4.863c-1.713,1.524-3.536-0.874-5.356-0.907
			c-1.589-0.029-3.039-0.072-4.412,0.785c-0.78,0.487-1.085,1.482-1.327,2.307c-0.905,3.085-2.721,2.264-4.924,3.756
			c-2.538,1.72-1.354,3.675-0.876,6.401c0.513-0.513,1.025-1.025,1.538-1.538c-2.763-0.721-3.881-1.001-5.293-3.679
			c-0.67-1.27-2.747-1.362-3.959-1.398c-3.454-0.103-3.958,5.403-4.619,7.616C35.419,30.47,37.832,31.127,38.292,29.586
			L38.292,29.586z"/>
	</g>
</g>
<g>
	<g>
		<path d="M86.105,189.46c1.008,0.651,2.108,1.06,3.315,1.085c0.807,0.017,0.805-1.233,0-1.25c-0.992-0.021-1.86-0.382-2.685-0.915
			C86.056,187.942,85.43,189.024,86.105,189.46L86.105,189.46z"/>
	</g>
</g>
<g>
	<g>
		<path fill="#30B4BC" d="M78.17,195.253c-0.416,5.492,5.037,7.025,9.31,8.457c3.772,1.264,7.123,3.622,10.858,5.077
			c2.923,1.139,5.914,1.959,8.405,3.954c1.595,1.277,3.007,2.765,4.612,4.037c4.076,3.229,9.478,2.528,12.235-1.937
			c1.348-2.183,1.376-5.179,1.201-7.632c-0.095-1.329-0.543-2.471-1.082-3.674c-1.487-3.318,1.202-5.966,2.667-8.703
			c1.939-3.622,1.808-8.717-3.053-8.9c-3.292-0.124-6.82,1.112-10.103,1.353c-2.08,0.153-4.154,0.194-6.188,0.681
			c-2.297,0.55-4.205,2.072-6.612,2.369c-3.012,0.372-5.984-4.333-9.333-4.333c-2.549,0-2.747,2.464-5.435,2.28
			c-5.358-0.367-8.043,1.25-7.104,6.969c0.261,1.588,2.67,0.912,2.411-0.665c-1.063-6.475,4.875-2.533,8.263-4.164
			c0.359-0.173,0.659-0.746,0.856-1.027c1.166-1.654,3.813,0.319,4.896,0.839c2.1,1.009,3.033,2.29,5.446,2.601
			c1.719,0.222,3.726-0.984,5.237-1.648c3.408-1.496,7.122-1.309,10.763-1.686c2.039-0.211,4.028-0.742,6.059-1.014
			c5.636-0.754-0.011,7.912-1.014,9.656c-2.15,3.736,0.863,7.324,0.911,11.094c0.051,3.992-2.283,7.767-6.822,6.994
			c-2.993-0.51-5.695-4.18-7.977-6.008c-4.455-3.567-10.951-4.429-15.858-7.385c-3.436-2.069-11.448-2.3-11.048-7.587
			C80.792,193.645,78.291,193.656,78.17,195.253L78.17,195.253z"/>
	</g>
</g>
<g>
	<g>
		<path d="M162.754,120.212c0.806,0,0.806-1.25,0-1.25C161.948,118.962,161.948,120.212,162.754,120.212L162.754,120.212z"/>
	</g>
</g>
<g>
	<g>
		<path fill="#30B4BC" d="M20.292,150.586c0.889-2.544,1.122-4.536-0.365-6.855c-0.723-1.127-1.592-2.105-2.263-3.277
			c-1.973-3.446,0.383-6.799,1.628-9.868c-0.762,0.1-1.523,0.199-2.285,0.299c2.556,5.907,8.525,1.452,11.969-1.062
			c1.86-1.358,6.472-5.728,7.999-2.594c1.725,3.54,3.134,7.283,4.507,10.974c1.01,2.715-0.987,4.636-1.783,6.966
			c-0.661,1.934-0.97,3.747-1.102,5.779c-0.295,4.535,1.059,10.457-2.139,14.217c-2.528,2.973-4.919-1.069-7.589,1.539
			c-1.811,1.768-1.351,6.572-6.4,4.044c-1.98-0.992-3.572-2.359-5.717-3.032c0.249,0.612,0.498,1.224,0.747,1.836
			c2.899-6.277,3.81-12.796,2.793-19.63c-0.237-1.59-2.645-0.912-2.411,0.665c0.909,6.103,0.046,12.102-2.541,17.703
			c-0.344,0.744-0.076,1.578,0.747,1.836c3.28,1.029,8.795,6.662,12.363,2.701c0.456-0.506,2.57-4.911,2.949-4.503
			c0.745,0.8,1.591,1.117,2.686,0.803c10.635-3.059,5.035-16.563,8.431-24.188c2.006-4.505,1.652-6.84-0.193-11.443
			c-1.15-2.869-2.164-7.198-4.353-9.458c-4.833-4.992-15.809,12.51-18.805,5.586c-0.485-1.121-1.936-0.561-2.285,0.299
			c-1.51,3.722-2.955,6.294-2,10.331c0.966,4.085,4.701,4.801,3,9.669C17.348,151.447,19.764,152.097,20.292,150.586L20.292,150.586
			z"/>
	</g>
</g>
<g>
	<g>
		<path fill="#277075" d="M14.086,71.757c3.43-0.592,5.528-2.073,7.891-4.554c2.82-2.961,6.328-4.271,10.167-5.464
			c7.289-2.265,15.632,10.918,16.026,17.182c0.101,1.601,2.601,1.611,2.5,0c-0.455-7.222-7.47-17.598-14.582-19.839
			c-3.234-1.019-7.16,0.975-10.073,2.26c-4.774,2.106-7.291,7.09-12.594,8.005C11.835,69.62,12.51,72.029,14.086,71.757
			L14.086,71.757z"/>
	</g>
</g>
<g>
	<g>
		<path d="M49.42,79.878c0.806,0,0.806-1.25,0-1.25C48.614,78.628,48.614,79.878,49.42,79.878L49.42,79.878z"/>
	</g>
</g>
<g>
	<g>
		<path d="M49.42,79.878c0.806,0,0.806-1.25,0-1.25C48.614,78.628,48.614,79.878,49.42,79.878L49.42,79.878z"/>
	</g>
</g>
<g>
	
		<circle fill="none" stroke="#FAD99E" stroke-width="2" stroke-miterlimit="10" stroke-dasharray="10.8275,2.9529" cx="34.754" cy="72.412" r="32.907"/>
</g>
<g>
	<g>
		<path fill="none" stroke="#FAD99E" stroke-width="2" stroke-miterlimit="10" d="M251.512,228.925
			c-1.382-1.204-2.746-2.428-4.091-3.672"/>
		<path fill="none" stroke="#FAD99E" stroke-width="2" stroke-miterlimit="10" stroke-dasharray="10.922,2.9787" d="
			M245.251,223.214c-35.369-33.763-57.404-81.374-57.404-134.131c0-29.422,6.853-57.244,19.051-81.955"/>
		<path fill="none" stroke="#FAD99E" stroke-width="2" stroke-miterlimit="10" d="M207.565,5.791
			c0.825-1.638,1.674-3.262,2.545-4.872"/>
	</g>
</g>
<circle fill="#FAD99E" stroke="#277075" stroke-miterlimit="10" cx="217.254" cy="65.42" r="5"/>
<circle fill="#FAD99E" stroke="#277075" stroke-miterlimit="10" cx="312.254" cy="98.305" r="5"/>
<circle fill="#FAD99E" stroke="#277075" stroke-miterlimit="10" cx="372.254" cy="133.805" r="5"/>
<circle fill="#FAD99E" stroke="#277075" stroke-miterlimit="10" cx="410.754" cy="165.305" r="5"/>
<circle fill="#FAD99E" stroke="#277075" stroke-miterlimit="10" cx="441.754" cy="199.691" r="5"/>
<line fill="none" stroke="#FAD99E" stroke-width="2" stroke-miterlimit="10" stroke-dasharray="11,3" x1="59.422" y1="92.912" x2="190.648" y2="118.812"/>
<text transform="matrix(1 0 0 1 214.2537 82.9201)" fill="#5D5E5E" font-family="'Montserrat-Bold'" font-size="10">Monterosso</text>
<text transform="matrix(1 0 0 1 264.7537 110.9201)" fill="#5D5E5E" font-family="'Montserrat-Bold'" font-size="10">Vernazza</text>
<text transform="matrix(1 0 0 1 319.2537 148.7625)" fill="#5D5E5E" font-family="'Montserrat-Bold'" font-size="10">Corniglia</text>
<text transform="matrix(1 0 0 1 357.7537 176.5867)" fill="#5D5E5E" font-family="'Montserrat-Bold'" font-size="10">Manarola</text>
<text transform="matrix(1 0 0 1 367.2537 207.9201)" fill="#5D5E5E" font-family="'Montserrat-Bold'" font-size="10">Riomaggiore</text>
</svg>
